<svg id="Layer_7" data-name="Layer 7" xmlns="http://www.w3.org/2000/svg" viewBox="0 0 1070 288"><defs><style>.cls-1{fill:#fff;}</style></defs><title>Smash</title><path class="cls-1" d="M140.73,124.89c-29.07-9.27-42.58-15-42.58-28.68,0-10.71,10.45-20,32.38-20a120.59,120.59,0,0,1,50,11l11.92-39.42c-14.62-6.58-33.51-11.68-61-11.68-51.63,0-84.55,27.23-84.55,64.06,0,34.85,27.14,53.14,64.62,63.93,27.84,8.09,38.12,15.73,38.12,28,0,13.94-12.32,22.76-35.18,22.76-23.41,0-45.12-7.53-59.2-15L44.29,240.81c13.38,7.44,39.94,14.72,66.26,14.72,64,0,90.59-32,90.59-66.23C201.14,156.77,181.38,138,140.73,124.89Z"/><path class="cls-1" d="M426.49,94.11c-12.66,0-22.74,2.86-31.76,8.33a68.06,68.06,0,0,0-21.42,19.82h-.63c-7.1-17.19-24.08-28.15-45-28.15-29.65,0-43.64,16.37-49.68,25.57h-1.13l-2-21.8h-42c.69,13.5,1.25,30.16,1.25,50.1V251.76h48.39V164.67a34.19,34.19,0,0,1,1.83-12.3c2.89-7.24,10.51-18.28,24.78-18.28,16.05,0,24.89,12.68,24.89,34.79v82.88h48.38V164.24a42.14,42.14,0,0,1,1.9-12.55c3.38-9.21,11.8-17.6,24.18-17.6,16.51,0,25.42,12.55,25.42,36.46v81.21H482.3V163.54C482.3,114.54,456.51,94.11,426.49,94.11Z"/><path class="cls-1" d="M537.44,248.85l16.39-9.36-7.52,13.13A51.64,51.64,0,0,1,537.44,248.85Z"/><path class="cls-1" d="M659.74,213.8V161.33c0-37.78-19-67.22-71.78-67.22-30.33,0-52.35,7.92-63.81,14.46l9.25,31.58c10.59-6.32,29.28-12.33,46.11-12.33,26.85-.06,30.36,12.57,30.36,19.42v1.48c-61-.2-97,19.64-97,59.61a45.84,45.84,0,0,0,19.61,37.46l14.85-8.5,7.85-33.13,9.46-16.54h0l28.39,16.25-9.46,16.54L559,244l.13,11.26c2.12.21,4.32.31,6.58.31,19.74,0,36.68-6.72,47.27-19.1h1.12l3,15.33h45.13C660.62,243.71,659.74,229.29,659.74,213.8Zm-62.19-17.75-.06.12h0l-28.39-16.26.06-.11C586.94,162.26,603.66,171.83,597.55,196.05Z"/><path class="cls-1" d="M771.87,157.47c-20.34-5.81-27.28-9.68-27.28-17.24,0-8,7.28-12.16,19.36-12.16,14.56,0,30,5.79,37.29,9.5l8.7-33.9c-9.8-5-27.65-9.56-47.38-9.56C721.93,94.11,696,116,696,145.34c-.25,19.41,13.76,37.28,48.06,46.58,19.11,5.31,24.12,8.84,24.12,16.78,0,7.47-6.18,12.37-21.93,12.37-15.09,0-35.8-6.65-45.41-12.55L691.74,244c13.3,6.6,32.29,11.49,54.77,11.49,48.16,0,70.51-22.58,70.51-50.32C816.77,181.08,803.25,166.41,771.87,157.47Z"/><path class="cls-1" d="M946.34,94.11a59.71,59.71,0,0,0-46.81,23.11h-.62V26.66H848.79v225.1h50.12V161.91c0-3.44.13-7.1,1.52-10.08,3.51-8.14,12-17.68,26.7-17.68,19.52,0,27.88,14,27.88,36.06v81.55h50.12V163.14C1005.13,114.28,977.66,94.11,946.34,94.11Z"/></svg>
