<svg id="Layer_6" data-name="Layer 6" xmlns="http://www.w3.org/2000/svg" viewBox="0 0 1070 348"><defs><style>.cls-1{fill:#fff;}</style></defs><title>Zvajzer</title><path class="cls-1" d="M66.73,231.77v-1.15L173.08,92.73V66.88H9.84v39.46H108.2v1.13L0,245.66v25.55H175.2V231.77ZM107,17.52,90.68,37.35h-.61L73.66,17.52H40.08L72.43,56H108.2l32.33-38.45Z"/><polygon class="cls-1" points="275.47 122.82 265.98 141.23 265.98 122.82 275.47 122.82"/><path class="cls-1" d="M285.2,122.82l-11.32,19.31,11.32,38.35v18.15H246.77V180.48l11.33-38.35-11.33-19.31H182l58.41,148.39h49.2L350,122.82Zm-.08,84.46c-1.83,35.44-36.43,35.44-38.27,0,0-.13,0-.27,0-.42h38.3C285.14,207,285.12,207.15,285.12,207.28Z"/><path class="cls-1" d="M502.64,234.61V184c0-36.43-18.36-64.82-69.21-64.82-29.25,0-50.47,7.64-61.52,13.94l8.91,30.46c10.21-6.1,28.24-11.89,44.46-11.89,25.9-.07,29.28,12.12,29.28,18.73v1.42c-58.83-.19-93.51,18.94-93.51,57.48,0,22.84,18.13,45.51,50.93,45.51,19,0,35.36-6.49,45.58-18.42h1.08l2.9,14.79h43.53C503.49,263.45,502.64,249.55,502.64,234.61ZM456,214.72a30.9,30.9,0,0,1-.86,8.26c-3.14,9.68-13.51,18.47-26.39,18.47-12,0-19.64-5.95-19.64-17,0-16.67,18.91-23,46.89-22.72Z"/><path class="cls-1" d="M549.88,122.82V236.3c0,31.91-2.92,44.13-10,51.32-6.07,6.15-16.22,9.37-29.83,10.39L515,335.48c24.72,0,47.41-6.1,62-19.9,14.13-13.83,21.22-34.84,21.22-66.93V122.82Z"/><path class="cls-1" d="M686.55,233.26v-.6c10.14-9.07,18.46-18.3,27.56-28.14l47.81-53.69.05-28H629.77v38h71.46v.6c-10.25,9.91-17,16.58-26.68,27l-50.19,55.84v27h140.2V233.26Z"/><path class="cls-1" d="M931.05,194.62c0-34-18-75.43-71.47-75.43-57.25,0-79.93,45.69-79.93,79.32,0,46.2,31.08,76.33,84.62,76.33,21.53,0,41-3.27,58.11-10.24l-6.57-32.15c-14.18,4.74-28,6.72-45,6.72-22.85,0-43.61-9.28-45.29-27.09H929.26A80.23,80.23,0,0,0,931.05,194.62ZM825,179.22c1.6-11.37,10.36-28.78,32-28.78,24.05,0,29,20.32,28.92,28.78Z"/><path class="cls-1" d="M1046.68,119.19c-15.55,0-35.61,9.36-43.61,33h-1.14l-1.57-29.39H959c.91,12.43,1.21,26.21,1.21,50.34v98h48.33v-75a58.66,58.66,0,0,1,.56-8.75c2.69-14.16,14.33-24.21,34.16-24.21a61.27,61.27,0,0,1,13.75,1.56V120.1A40.54,40.54,0,0,0,1046.68,119.19Z"/><rect class="cls-1" x="549.88" y="69.5" width="48.33" height="33.5"/></svg>