<svg id="Layer_6" data-name="Layer 6" xmlns="http://www.w3.org/2000/svg" viewBox="0 0 1080 348"><defs><style>.cls-1{fill:#fff;}</style></defs><title>Zvajzer</title><path class="cls-1" d="M74.23,231.77v-1.15L180.58,92.73V66.88H17.34v39.46H115.7v1.13L7.5,245.66v25.55H182.7V231.77ZM114.46,17.52,98.18,37.35h-.61L81.16,17.52H47.58L79.93,56H115.7L148,17.52Z"/><polygon class="cls-1" points="282.97 122.82 273.48 141.23 273.48 122.82 282.97 122.82"/><path class="cls-1" d="M292.7,122.82l-11.32,19.31,11.32,38.35v18.15H254.27V180.48l11.33-38.35-11.33-19.31H189.48l58.41,148.39h49.2l60.4-148.39Zm-.08,84.46c-1.83,35.44-36.43,35.44-38.27,0,0-.13,0-.27,0-.42h38.3C292.64,207,292.62,207.15,292.62,207.28Z"/><path class="cls-1" d="M510.14,234.61V184c0-36.43-18.36-64.82-69.21-64.82-29.25,0-50.47,7.64-61.52,13.94l8.91,30.46c10.21-6.1,28.24-11.89,44.46-11.89,25.9-.07,29.28,12.12,29.28,18.73v1.42c-58.83-.19-93.51,18.94-93.51,57.48,0,22.84,18.13,45.51,50.93,45.51,19,0,35.36-6.49,45.58-18.42h1.08l2.9,14.79h43.53C511,263.45,510.14,249.55,510.14,234.61Zm-46.65-19.89a30.9,30.9,0,0,1-.86,8.26c-3.14,9.68-13.51,18.47-26.39,18.47-12,0-19.64-5.95-19.64-17,0-16.67,18.91-23,46.89-22.72Z"/><path class="cls-1" d="M557.38,122.82V236.3c0,31.91-2.92,44.13-10,51.32-6.07,6.15-16.22,9.37-29.83,10.39l4.87,37.47c24.72,0,47.41-6.1,62-19.9,14.13-13.83,21.22-34.84,21.22-66.93V122.82Z"/><path class="cls-1" d="M694.05,233.26v-.6c10.14-9.07,18.46-18.3,27.56-28.14l47.81-53.69.05-28H637.27v38h71.46v.6c-10.25,9.91-17,16.58-26.68,27l-50.19,55.84v27h140.2V233.26Z"/><path class="cls-1" d="M938.55,194.62c0-34-18-75.43-71.47-75.43-57.25,0-79.93,45.69-79.93,79.32,0,46.2,31.08,76.33,84.62,76.33,21.53,0,41-3.27,58.11-10.24l-6.57-32.15c-14.18,4.74-28,6.72-45,6.72-22.85,0-43.61-9.28-45.29-27.09H936.76A80.23,80.23,0,0,0,938.55,194.62Zm-106.06-15.4c1.6-11.37,10.36-28.78,32-28.78,24.05,0,29,20.32,28.92,28.78Z"/><path class="cls-1" d="M1054.18,119.19c-15.55,0-35.61,9.36-43.61,33h-1.14l-1.57-29.39H966.49c.91,12.43,1.21,26.21,1.21,50.34v98H1016v-75a58.66,58.66,0,0,1,.56-8.75c2.69-14.16,14.33-24.21,34.16-24.21a61.27,61.27,0,0,1,13.75,1.56V120.1A40.54,40.54,0,0,0,1054.18,119.19Z"/></svg>